<svg version="1.1" id="Layer_1" xmlns="http://www.w3.org/2000/svg" xmlns:xlink="http://www.w3.org/1999/xlink" x="0px" y="0px"
	 width="100%" viewBox="0 0 512 512" enable-background="new 0 0 512 512" xml:space="preserve">
<path fill="#FFC107" opacity="1.000000" stroke="none" 
	d="
M513.000000,76.999992 
	C513.000000,136.687561 513.000000,196.375122 512.531372,256.531342 
	C452.415405,257.000000 392.768127,257.010529 333.120850,256.995026 
	C307.797211,256.988434 282.473602,256.927185 257.092499,256.430542 
	C257.023346,170.980179 257.011658,85.990089 257.000000,1.000000 
	C316.687561,1.000000 376.375122,1.000000 436.194702,1.304852 
	C437.140259,2.071241 437.901917,2.765002 438.775024,2.960042 
	C456.350372,6.886184 471.466797,15.302900 484.326263,27.836027 
	C497.829407,40.996487 506.835052,56.703701 511.067352,75.127380 
	C511.235870,75.860855 512.334656,76.380638 513.000000,76.999992 
M448.495178,142.669876 
	C449.761932,134.207825 445.565826,129.037796 437.101746,129.024094 
	C402.300964,128.967789 367.500031,128.974335 332.699219,129.024185 
	C325.886078,129.033951 321.155121,133.393433 321.023010,139.424164 
	C320.886108,145.672958 325.618195,150.199600 332.747498,150.212036 
	C367.548248,150.272720 402.349182,150.222336 437.149994,150.259460 
	C442.332581,150.264984 446.168762,148.349136 448.495178,142.669876 
z"/>
<path fill="#455A64" opacity="1.000000" stroke="none" 
	d="
M257.149963,256.890778 
	C282.473602,256.927185 307.797211,256.988434 333.120850,256.995026 
	C392.768127,257.010529 452.415405,257.000000 512.531372,257.000000 
	C513.000000,316.687561 513.000000,376.375122 512.611633,436.483398 
	C511.806427,437.731995 511.212097,438.516724 510.999023,439.394043 
	C506.900177,456.270752 498.846893,470.998688 486.903473,483.572601 
	C473.959900,497.199554 458.245850,506.128632 440.106812,510.919556 
	C438.967499,511.220459 438.030914,512.288757 437.000000,513.000000 
	C377.312439,513.000000 317.624878,513.000000 257.468628,512.531372 
	C256.974670,427.116913 256.949371,342.171143 256.989624,257.147827 
	C257.055176,257.070312 257.149963,256.890778 257.149963,256.890778 
M401.820648,433.746643 
	C403.966156,437.309937 405.922424,441.006165 408.306946,444.401581 
	C411.048523,448.305450 415.039520,449.878448 419.703033,448.603119 
	C424.329407,447.337982 427.389984,444.038269 427.417236,439.290253 
	C427.434082,436.348236 426.190308,433.098511 424.651947,430.495483 
	C412.123077,409.295807 399.391266,388.216095 386.720856,367.100098 
	C378.759247,353.831512 370.845856,340.533630 362.812866,327.308380 
	C359.274017,321.482178 353.699982,319.657104 348.385529,322.290192 
	C342.280853,325.314819 340.817383,332.061981 344.944397,338.957367 
	C363.743042,370.365906 382.587585,401.746979 401.820648,433.746643 
z"/>
<path fill="#4CAF50" opacity="1.000000" stroke="none" 
	d="
M256.531342,1.000000 
	C257.011658,85.990089 257.023346,170.980179 257.092499,256.430542 
	C257.149963,256.890778 257.055176,257.070312 256.531250,257.066223 
	C171.004883,257.041412 86.002441,257.020721 1.000000,257.000000 
	C1.000000,197.312439 1.000000,137.624878 1.382821,77.618942 
	C2.179084,76.470413 2.776764,75.682571 2.978585,74.803810 
	C6.535680,59.315712 13.599975,45.519409 24.003662,33.645149 
	C37.693775,18.019918 54.718159,7.593162 75.118988,2.926417 
	C75.854401,2.758188 76.377800,1.663118 77.000000,1.000001 
	C136.687561,1.000000 196.375122,1.000000 256.531342,1.000000 
M164.514374,150.246277 
	C176.507889,150.246201 188.501404,150.258835 200.494904,150.241928 
	C209.626892,150.229065 214.275452,146.562424 214.185471,139.496567 
	C214.098480,132.666153 209.410950,129.013016 200.675735,129.002213 
	C190.681107,128.989853 180.686462,128.999313 170.691818,128.999313 
	C164.069229,128.999298 157.446625,128.999298 150.249130,128.999298 
	C150.249130,126.739960 150.249420,124.956581 150.249084,123.173203 
	C150.246155,107.681519 150.303284,92.189491 150.212860,76.698318 
	C150.172104,69.713905 145.999573,65.167686 139.877686,65.032562 
	C133.628983,64.894646 129.069427,69.702873 129.022812,76.753319 
	C128.943512,88.746361 128.999832,100.740303 128.999344,112.733864 
	C128.999115,118.014351 128.999298,123.294846 128.999298,128.999252 
	C126.845749,128.999252 125.220367,128.999222 123.594986,128.999252 
	C108.269875,128.999435 92.944725,128.977707 77.619675,129.009140 
	C69.987076,129.024796 65.105141,133.141037 65.018501,139.510681 
	C64.931480,145.908142 69.758759,150.194580 77.339989,150.224045 
	C92.664864,150.283585 107.990135,150.244598 123.315239,150.246216 
	C125.088036,150.246399 126.860825,150.246262 128.999283,150.246262 
	C128.999283,152.722961 128.999222,154.530685 128.999283,156.338409 
	C128.999756,171.663513 128.963150,186.988770 129.018005,202.313675 
	C129.041824,208.967163 132.579468,213.411453 138.148941,214.091934 
	C145.118896,214.943512 150.142853,210.430984 150.202469,202.843964 
	C150.325485,187.186661 150.237305,171.527740 150.260712,155.869522 
	C150.263336,154.112625 150.425278,152.355942 150.531021,150.246323 
	C155.234406,150.246323 159.377792,150.246323 164.514374,150.246277 
z"/>
<path fill="#2196F3" opacity="1.000000" stroke="none" 
	d="
M1.000000,257.468658 
	C86.002441,257.020721 171.004883,257.041412 256.465698,257.143738 
	C256.949371,342.171143 256.974670,427.116913 257.000000,512.531372 
	C197.312439,513.000000 137.624878,513.000000 77.800316,512.690430 
	C76.846626,511.922882 76.080322,511.227753 75.205788,511.041901 
	C59.124767,507.624420 45.065109,500.060333 32.918797,489.264038 
	C17.694025,475.731445 7.485703,458.962830 2.932612,438.928986 
	C2.762017,438.178375 1.665189,437.638245 0.999994,437.000000 
	C1.000000,377.312439 1.000000,317.624878 1.000000,257.468658 
M170.674072,329.149139 
	C160.425598,341.949371 150.177124,354.749603 139.690231,367.847595 
	C137.822952,365.562531 136.444473,363.905396 135.097733,362.222809 
	C125.521278,350.258362 115.970337,338.273468 106.369919,326.328339 
	C102.536064,321.558136 98.360497,320.040833 93.781578,321.573364 
	C86.159958,324.124359 84.074196,332.482635 89.549194,339.410583 
	C100.600365,353.394409 111.676414,367.362335 123.007828,381.118042 
	C125.587044,384.249084 125.371475,386.135498 122.871147,389.051483 
	C117.127472,395.749969 111.750237,402.763123 106.239708,409.660919 
	C100.313408,417.079163 94.262421,424.403992 88.540619,431.977173 
	C84.982956,436.685913 85.859734,442.790436 90.065231,446.375580 
	C94.512321,450.166687 100.627281,449.788727 104.908028,445.408051 
	C105.835617,444.458801 106.625267,443.372650 107.458290,442.333374 
	C118.070213,429.094513 128.678467,415.852753 139.660095,402.146851 
	C145.663544,409.633148 151.371964,416.752441 157.081421,423.870880 
	C162.709351,430.887756 168.260300,437.968414 173.998749,444.893677 
	C177.016144,448.535126 180.987488,449.956665 185.636551,448.374420 
	C190.010559,446.885742 192.973862,443.622803 192.723862,439.141205 
	C192.544846,435.931702 190.990540,432.353668 188.984711,429.765533 
	C178.169754,415.810883 167.089233,402.059357 155.929306,388.377228 
	C153.827866,385.800842 153.881104,384.138336 155.957413,381.601593 
	C165.663254,369.743713 175.178925,357.729980 184.740631,345.754425 
	C187.025482,342.892761 189.482529,340.123230 191.405869,337.028809 
	C194.357407,332.280090 193.062271,326.512024 188.705460,323.207184 
	C184.502075,320.018738 178.944229,320.295258 175.008926,324.038086 
	C173.569458,325.407135 172.399918,327.059967 170.674072,329.149139 
z"/>
<path fill="#000000" opacity="1.000000" stroke="none" 
	d="
M437.468689,513.000000 
	C438.030914,512.288757 438.967499,511.220459 440.106812,510.919556 
	C458.245850,506.128632 473.959900,497.199554 486.903473,483.572601 
	C498.846893,470.998688 506.900177,456.270752 510.999023,439.394043 
	C511.212097,438.516724 511.806427,437.731995 512.611633,436.952087 
	C513.000000,462.260223 513.000000,487.520416 513.000000,513.000000 
	C487.979523,513.000000 462.958435,513.000000 437.468689,513.000000 
z"/>
<path fill="#000000" opacity="1.000000" stroke="none" 
	d="
M0.999994,437.468658 
	C1.665189,437.638245 2.762017,438.178375 2.932612,438.928986 
	C7.485703,458.962830 17.694025,475.731445 32.918797,489.264038 
	C45.065109,500.060333 59.124767,507.624420 75.205788,511.041901 
	C76.080322,511.227753 76.846626,511.922882 77.331657,512.690430 
	C51.739792,513.000000 26.479582,513.000000 1.000000,513.000000 
	C1.000000,487.979523 1.000000,462.958435 0.999994,437.468658 
z"/>
<path fill="#000000" opacity="1.000000" stroke="none" 
	d="
M513.000000,76.531334 
	C512.334656,76.380638 511.235870,75.860855 511.067352,75.127380 
	C506.835052,56.703701 497.829407,40.996487 484.326263,27.836027 
	C471.466797,15.302900 456.350372,6.886184 438.775024,2.960042 
	C437.901917,2.765002 437.140259,2.071241 436.663330,1.304852 
	C462.260223,1.000000 487.520416,1.000000 513.000000,1.000000 
	C513.000000,26.020468 513.000000,51.041576 513.000000,76.531334 
z"/>
<path fill="#000000" opacity="1.000000" stroke="none" 
	d="
M76.531342,1.000001 
	C76.377800,1.663118 75.854401,2.758188 75.118988,2.926417 
	C54.718159,7.593162 37.693775,18.019918 24.003662,33.645149 
	C13.599975,45.519409 6.535680,59.315712 2.978585,74.803810 
	C2.776764,75.682571 2.179084,76.470413 1.382821,77.150284 
	C1.000000,51.739792 1.000000,26.479588 1.000000,1.000000 
	C26.020468,1.000000 51.041576,1.000000 76.531342,1.000001 
z"/>
<path fill="#FAFAF9" opacity="1.000000" stroke="none" 
	d="
M448.350983,143.037735 
	C446.168762,148.349136 442.332581,150.264984 437.149994,150.259460 
	C402.349182,150.222336 367.548248,150.272720 332.747498,150.212036 
	C325.618195,150.199600 320.886108,145.672958 321.023010,139.424164 
	C321.155121,133.393433 325.886078,129.033951 332.699219,129.024185 
	C367.500031,128.974335 402.300964,128.967789 437.101746,129.024094 
	C445.565826,129.037796 449.761932,134.207825 448.350983,143.037735 
z"/>
<path fill="#F7F8F8" opacity="1.000000" stroke="none" 
	d="
M401.618134,433.442291 
	C382.587585,401.746979 363.743042,370.365906 344.944397,338.957367 
	C340.817383,332.061981 342.280853,325.314819 348.385529,322.290192 
	C353.699982,319.657104 359.274017,321.482178 362.812866,327.308380 
	C370.845856,340.533630 378.759247,353.831512 386.720856,367.100098 
	C399.391266,388.216095 412.123077,409.295807 424.651947,430.495483 
	C426.190308,433.098511 427.434082,436.348236 427.417236,439.290253 
	C427.389984,444.038269 424.329407,447.337982 419.703033,448.603119 
	C415.039520,449.878448 411.048523,448.305450 408.306946,444.401581 
	C405.922424,441.006165 403.966156,437.309937 401.618134,433.442291 
z"/>
<path fill="#F9FAFA" opacity="1.000000" stroke="none" 
	d="
M164.017776,150.246307 
	C159.377792,150.246323 155.234406,150.246323 150.531021,150.246323 
	C150.425278,152.355942 150.263336,154.112625 150.260712,155.869522 
	C150.237305,171.527740 150.325485,187.186661 150.202469,202.843964 
	C150.142853,210.430984 145.118896,214.943512 138.148941,214.091934 
	C132.579468,213.411453 129.041824,208.967163 129.018005,202.313675 
	C128.963150,186.988770 128.999756,171.663513 128.999283,156.338409 
	C128.999222,154.530685 128.999283,152.722961 128.999283,150.246262 
	C126.860825,150.246262 125.088036,150.246399 123.315239,150.246216 
	C107.990135,150.244598 92.664864,150.283585 77.339989,150.224045 
	C69.758759,150.194580 64.931480,145.908142 65.018501,139.510681 
	C65.105141,133.141037 69.987076,129.024796 77.619675,129.009140 
	C92.944725,128.977707 108.269875,128.999435 123.594986,128.999252 
	C125.220367,128.999222 126.845749,128.999252 128.999298,128.999252 
	C128.999298,123.294846 128.999115,118.014351 128.999344,112.733864 
	C128.999832,100.740303 128.943512,88.746361 129.022812,76.753319 
	C129.069427,69.702873 133.628983,64.894646 139.877686,65.032562 
	C145.999573,65.167686 150.172104,69.713905 150.212860,76.698318 
	C150.303284,92.189491 150.246155,107.681519 150.249084,123.173203 
	C150.249420,124.956581 150.249130,126.739960 150.249130,128.999298 
	C157.446625,128.999298 164.069229,128.999298 170.691818,128.999313 
	C180.686462,128.999313 190.681107,128.989853 200.675735,129.002213 
	C209.410950,129.013016 214.098480,132.666153 214.185471,139.496567 
	C214.275452,146.562424 209.626892,150.229065 200.494904,150.241928 
	C188.501404,150.258835 176.507889,150.246201 164.017776,150.246307 
z"/>
<path fill="#F7F9FA" opacity="1.000000" stroke="none" 
	d="
M170.890656,328.866241 
	C172.399918,327.059967 173.569458,325.407135 175.008926,324.038086 
	C178.944229,320.295258 184.502075,320.018738 188.705460,323.207184 
	C193.062271,326.512024 194.357407,332.280090 191.405869,337.028809 
	C189.482529,340.123230 187.025482,342.892761 184.740631,345.754425 
	C175.178925,357.729980 165.663254,369.743713 155.957413,381.601593 
	C153.881104,384.138336 153.827866,385.800842 155.929306,388.377228 
	C167.089233,402.059357 178.169754,415.810883 188.984711,429.765533 
	C190.990540,432.353668 192.544846,435.931702 192.723862,439.141205 
	C192.973862,443.622803 190.010559,446.885742 185.636551,448.374420 
	C180.987488,449.956665 177.016144,448.535126 173.998749,444.893677 
	C168.260300,437.968414 162.709351,430.887756 157.081421,423.870880 
	C151.371964,416.752441 145.663544,409.633148 139.660095,402.146851 
	C128.678467,415.852753 118.070213,429.094513 107.458290,442.333374 
	C106.625267,443.372650 105.835617,444.458801 104.908028,445.408051 
	C100.627281,449.788727 94.512321,450.166687 90.065231,446.375580 
	C85.859734,442.790436 84.982956,436.685913 88.540619,431.977173 
	C94.262421,424.403992 100.313408,417.079163 106.239708,409.660919 
	C111.750237,402.763123 117.127472,395.749969 122.871147,389.051483 
	C125.371475,386.135498 125.587044,384.249084 123.007828,381.118042 
	C111.676414,367.362335 100.600365,353.394409 89.549194,339.410583 
	C84.074196,332.482635 86.159958,324.124359 93.781578,321.573364 
	C98.360497,320.040833 102.536064,321.558136 106.369919,326.328339 
	C115.970337,338.273468 125.521278,350.258362 135.097733,362.222809 
	C136.444473,363.905396 137.822952,365.562531 139.690231,367.847595 
	C150.177124,354.749603 160.425598,341.949371 170.890656,328.866241 
z"/>
</svg>